<mxfile host="app.diagrams.net" modified="2023-08-15T01:30:18.990Z" agent="Mozilla/5.0 (Windows NT 10.0; Win64; x64) AppleWebKit/537.36 (KHTML, like Gecko) Chrome/89.0.4389.114 Safari/537.36 Edg/89.0.774.68" etag="KH_680gir9wGiaVC_xhb" version="21.6.8" type="github">
  <diagram id="R2lEEEUBdFMjLlhIrx00" name="Page-1">
    <mxGraphModel dx="794" dy="391" grid="1" gridSize="10" guides="1" tooltips="1" connect="1" arrows="1" fold="1" page="1" pageScale="1" pageWidth="850" pageHeight="1100" math="0" shadow="0" extFonts="Permanent Marker^https://fonts.googleapis.com/css?family=Permanent+Marker">
      <root>
        <mxCell id="0" />
        <mxCell id="1" parent="0" />
        <mxCell id="-3z4gxKFgQdJEB-5rTY0-2" value="教师" style="rounded=0;whiteSpace=wrap;html=1;" vertex="1" parent="1">
          <mxGeometry x="160" y="355" width="80" height="30" as="geometry" />
        </mxCell>
        <mxCell id="-3z4gxKFgQdJEB-5rTY0-3" value="教师姓名" style="ellipse;whiteSpace=wrap;html=1;" vertex="1" parent="1">
          <mxGeometry x="80" y="275" width="70" height="50" as="geometry" />
        </mxCell>
        <mxCell id="-3z4gxKFgQdJEB-5rTY0-4" value="教师编号" style="ellipse;whiteSpace=wrap;html=1;" vertex="1" parent="1">
          <mxGeometry x="165" y="245" width="70" height="50" as="geometry" />
        </mxCell>
        <mxCell id="-3z4gxKFgQdJEB-5rTY0-5" value="教师联系电话" style="ellipse;whiteSpace=wrap;html=1;container=1;" vertex="1" parent="1">
          <mxGeometry x="250" y="245" width="90" height="55" as="geometry" />
        </mxCell>
        <mxCell id="-3z4gxKFgQdJEB-5rTY0-6" value="" style="endArrow=none;html=1;rounded=0;entryX=0.5;entryY=1;entryDx=0;entryDy=0;exitX=0.5;exitY=0;exitDx=0;exitDy=0;" edge="1" parent="1" source="-3z4gxKFgQdJEB-5rTY0-2" target="-3z4gxKFgQdJEB-5rTY0-5">
          <mxGeometry width="50" height="50" relative="1" as="geometry">
            <mxPoint x="340" y="365" as="sourcePoint" />
            <mxPoint x="390" y="315" as="targetPoint" />
          </mxGeometry>
        </mxCell>
        <mxCell id="-3z4gxKFgQdJEB-5rTY0-7" value="" style="endArrow=none;html=1;rounded=0;exitX=0.5;exitY=0;exitDx=0;exitDy=0;entryX=0.5;entryY=1;entryDx=0;entryDy=0;" edge="1" parent="1" source="-3z4gxKFgQdJEB-5rTY0-2" target="-3z4gxKFgQdJEB-5rTY0-4">
          <mxGeometry width="50" height="50" relative="1" as="geometry">
            <mxPoint x="225" y="365" as="sourcePoint" />
            <mxPoint x="220" y="305" as="targetPoint" />
          </mxGeometry>
        </mxCell>
        <mxCell id="-3z4gxKFgQdJEB-5rTY0-8" value="" style="endArrow=none;html=1;rounded=0;entryX=0.5;entryY=1;entryDx=0;entryDy=0;exitX=0.5;exitY=0;exitDx=0;exitDy=0;" edge="1" parent="1" source="-3z4gxKFgQdJEB-5rTY0-2" target="-3z4gxKFgQdJEB-5rTY0-3">
          <mxGeometry width="50" height="50" relative="1" as="geometry">
            <mxPoint x="235" y="375" as="sourcePoint" />
            <mxPoint x="345" y="345" as="targetPoint" />
          </mxGeometry>
        </mxCell>
        <mxCell id="-3z4gxKFgQdJEB-5rTY0-30" value="课程" style="rounded=0;whiteSpace=wrap;html=1;" vertex="1" parent="1">
          <mxGeometry x="555" y="355" width="80" height="30" as="geometry" />
        </mxCell>
        <mxCell id="-3z4gxKFgQdJEB-5rTY0-31" value="课程名" style="ellipse;whiteSpace=wrap;html=1;" vertex="1" parent="1">
          <mxGeometry x="470" y="255" width="70" height="50" as="geometry" />
        </mxCell>
        <mxCell id="-3z4gxKFgQdJEB-5rTY0-32" value="课程编号" style="ellipse;whiteSpace=wrap;html=1;" vertex="1" parent="1">
          <mxGeometry x="560" y="245" width="70" height="50" as="geometry" />
        </mxCell>
        <mxCell id="-3z4gxKFgQdJEB-5rTY0-33" value="课程详细信息" style="ellipse;whiteSpace=wrap;html=1;container=1;" vertex="1" collapsed="1" parent="1">
          <mxGeometry x="660" y="260" width="90" height="45" as="geometry">
            <mxRectangle x="670" y="275" width="70" height="50" as="alternateBounds" />
          </mxGeometry>
        </mxCell>
        <mxCell id="-3z4gxKFgQdJEB-5rTY0-34" value="" style="endArrow=none;html=1;rounded=0;entryX=0.5;entryY=1;entryDx=0;entryDy=0;exitX=0.5;exitY=0;exitDx=0;exitDy=0;" edge="1" parent="1" source="-3z4gxKFgQdJEB-5rTY0-30" target="-3z4gxKFgQdJEB-5rTY0-33">
          <mxGeometry width="50" height="50" relative="1" as="geometry">
            <mxPoint x="720" y="365" as="sourcePoint" />
            <mxPoint x="770" y="315" as="targetPoint" />
          </mxGeometry>
        </mxCell>
        <mxCell id="-3z4gxKFgQdJEB-5rTY0-35" value="" style="endArrow=none;html=1;rounded=0;exitX=0.5;exitY=0;exitDx=0;exitDy=0;entryX=0.5;entryY=1;entryDx=0;entryDy=0;" edge="1" parent="1" source="-3z4gxKFgQdJEB-5rTY0-30" target="-3z4gxKFgQdJEB-5rTY0-32">
          <mxGeometry width="50" height="50" relative="1" as="geometry">
            <mxPoint x="605" y="365" as="sourcePoint" />
            <mxPoint x="600" y="305" as="targetPoint" />
          </mxGeometry>
        </mxCell>
        <mxCell id="-3z4gxKFgQdJEB-5rTY0-36" value="" style="endArrow=none;html=1;rounded=0;entryX=0.5;entryY=1;entryDx=0;entryDy=0;exitX=0.5;exitY=0;exitDx=0;exitDy=0;" edge="1" parent="1" source="-3z4gxKFgQdJEB-5rTY0-30" target="-3z4gxKFgQdJEB-5rTY0-31">
          <mxGeometry width="50" height="50" relative="1" as="geometry">
            <mxPoint x="615" y="375" as="sourcePoint" />
            <mxPoint x="725" y="345" as="targetPoint" />
          </mxGeometry>
        </mxCell>
        <mxCell id="-3z4gxKFgQdJEB-5rTY0-59" style="edgeStyle=orthogonalEdgeStyle;rounded=0;orthogonalLoop=1;jettySize=auto;html=1;exitX=0.5;exitY=1;exitDx=0;exitDy=0;entryX=0.5;entryY=0;entryDx=0;entryDy=0;endArrow=none;endFill=0;" edge="1" parent="1" source="-3z4gxKFgQdJEB-5rTY0-37" target="-3z4gxKFgQdJEB-5rTY0-56">
          <mxGeometry relative="1" as="geometry" />
        </mxCell>
        <mxCell id="-3z4gxKFgQdJEB-5rTY0-60" value="n" style="edgeLabel;html=1;align=center;verticalAlign=middle;resizable=0;points=[];" vertex="1" connectable="0" parent="-3z4gxKFgQdJEB-5rTY0-59">
          <mxGeometry x="0.2267" y="1" relative="1" as="geometry">
            <mxPoint as="offset" />
          </mxGeometry>
        </mxCell>
        <mxCell id="-3z4gxKFgQdJEB-5rTY0-37" value="学生" style="rounded=0;whiteSpace=wrap;html=1;" vertex="1" parent="1">
          <mxGeometry x="355" y="140" width="80" height="30" as="geometry" />
        </mxCell>
        <mxCell id="-3z4gxKFgQdJEB-5rTY0-38" value="学生姓名" style="ellipse;whiteSpace=wrap;html=1;" vertex="1" parent="1">
          <mxGeometry x="160" y="60" width="70" height="50" as="geometry" />
        </mxCell>
        <mxCell id="-3z4gxKFgQdJEB-5rTY0-39" value="学号" style="ellipse;whiteSpace=wrap;html=1;" vertex="1" parent="1">
          <mxGeometry x="230" y="30" width="70" height="50" as="geometry" />
        </mxCell>
        <mxCell id="-3z4gxKFgQdJEB-5rTY0-40" value="生日" style="ellipse;whiteSpace=wrap;html=1;container=1;" vertex="1" parent="1">
          <mxGeometry x="320" y="20" width="70" height="50" as="geometry" />
        </mxCell>
        <mxCell id="-3z4gxKFgQdJEB-5rTY0-41" value="" style="endArrow=none;html=1;rounded=0;entryX=0.5;entryY=1;entryDx=0;entryDy=0;exitX=0.5;exitY=0;exitDx=0;exitDy=0;" edge="1" parent="1" source="-3z4gxKFgQdJEB-5rTY0-37" target="-3z4gxKFgQdJEB-5rTY0-40">
          <mxGeometry width="50" height="50" relative="1" as="geometry">
            <mxPoint x="500" y="30" as="sourcePoint" />
            <mxPoint x="550" y="-20" as="targetPoint" />
          </mxGeometry>
        </mxCell>
        <mxCell id="-3z4gxKFgQdJEB-5rTY0-42" value="" style="endArrow=none;html=1;rounded=0;exitX=0.5;exitY=0;exitDx=0;exitDy=0;entryX=0.5;entryY=1;entryDx=0;entryDy=0;" edge="1" parent="1" source="-3z4gxKFgQdJEB-5rTY0-37" target="-3z4gxKFgQdJEB-5rTY0-39">
          <mxGeometry width="50" height="50" relative="1" as="geometry">
            <mxPoint x="385" y="30" as="sourcePoint" />
            <mxPoint x="380" y="-30" as="targetPoint" />
          </mxGeometry>
        </mxCell>
        <mxCell id="-3z4gxKFgQdJEB-5rTY0-43" value="" style="endArrow=none;html=1;rounded=0;entryX=1;entryY=1;entryDx=0;entryDy=0;exitX=0.5;exitY=0;exitDx=0;exitDy=0;" edge="1" parent="1" source="-3z4gxKFgQdJEB-5rTY0-37" target="-3z4gxKFgQdJEB-5rTY0-38">
          <mxGeometry width="50" height="50" relative="1" as="geometry">
            <mxPoint x="395" y="40" as="sourcePoint" />
            <mxPoint x="505" y="10" as="targetPoint" />
          </mxGeometry>
        </mxCell>
        <mxCell id="-3z4gxKFgQdJEB-5rTY0-44" value="性别" style="ellipse;whiteSpace=wrap;html=1;container=1;" vertex="1" parent="1">
          <mxGeometry x="425" y="20" width="70" height="50" as="geometry" />
        </mxCell>
        <mxCell id="-3z4gxKFgQdJEB-5rTY0-45" value="年龄" style="ellipse;whiteSpace=wrap;html=1;container=1;" vertex="1" parent="1">
          <mxGeometry x="520" y="30" width="70" height="50" as="geometry" />
        </mxCell>
        <mxCell id="-3z4gxKFgQdJEB-5rTY0-46" value="联系方式" style="ellipse;whiteSpace=wrap;html=1;container=1;" vertex="1" parent="1">
          <mxGeometry x="580" y="80" width="70" height="50" as="geometry" />
        </mxCell>
        <mxCell id="-3z4gxKFgQdJEB-5rTY0-47" value="" style="endArrow=none;html=1;rounded=0;entryX=0;entryY=1;entryDx=0;entryDy=0;exitX=0.5;exitY=0;exitDx=0;exitDy=0;" edge="1" parent="1" source="-3z4gxKFgQdJEB-5rTY0-37" target="-3z4gxKFgQdJEB-5rTY0-44">
          <mxGeometry width="50" height="50" relative="1" as="geometry">
            <mxPoint x="385" y="30" as="sourcePoint" />
            <mxPoint x="485" y="-20" as="targetPoint" />
          </mxGeometry>
        </mxCell>
        <mxCell id="-3z4gxKFgQdJEB-5rTY0-48" value="" style="endArrow=none;html=1;rounded=0;entryX=0;entryY=1;entryDx=0;entryDy=0;exitX=0.5;exitY=0;exitDx=0;exitDy=0;" edge="1" parent="1" source="-3z4gxKFgQdJEB-5rTY0-37" target="-3z4gxKFgQdJEB-5rTY0-45">
          <mxGeometry width="50" height="50" relative="1" as="geometry">
            <mxPoint x="395" y="40" as="sourcePoint" />
            <mxPoint x="495" y="-10" as="targetPoint" />
          </mxGeometry>
        </mxCell>
        <mxCell id="-3z4gxKFgQdJEB-5rTY0-49" value="" style="endArrow=none;html=1;rounded=0;entryX=0;entryY=0.5;entryDx=0;entryDy=0;exitX=0.5;exitY=0;exitDx=0;exitDy=0;" edge="1" parent="1" source="-3z4gxKFgQdJEB-5rTY0-37" target="-3z4gxKFgQdJEB-5rTY0-46">
          <mxGeometry width="50" height="50" relative="1" as="geometry">
            <mxPoint x="405" y="50" as="sourcePoint" />
            <mxPoint x="505" as="targetPoint" />
          </mxGeometry>
        </mxCell>
        <mxCell id="-3z4gxKFgQdJEB-5rTY0-50" value="授课" style="rhombus;whiteSpace=wrap;html=1;" vertex="1" parent="1">
          <mxGeometry x="360" y="330" width="70" height="80" as="geometry" />
        </mxCell>
        <mxCell id="-3z4gxKFgQdJEB-5rTY0-52" value="" style="endArrow=none;html=1;rounded=0;exitX=1;exitY=0.5;exitDx=0;exitDy=0;entryX=0;entryY=0.5;entryDx=0;entryDy=0;" edge="1" parent="1" source="-3z4gxKFgQdJEB-5rTY0-2" target="-3z4gxKFgQdJEB-5rTY0-50">
          <mxGeometry width="50" height="50" relative="1" as="geometry">
            <mxPoint x="340" y="445" as="sourcePoint" />
            <mxPoint x="390" y="395" as="targetPoint" />
          </mxGeometry>
        </mxCell>
        <mxCell id="-3z4gxKFgQdJEB-5rTY0-54" value="n" style="edgeLabel;html=1;align=center;verticalAlign=middle;resizable=0;points=[];" vertex="1" connectable="0" parent="-3z4gxKFgQdJEB-5rTY0-52">
          <mxGeometry x="0.1873" y="3" relative="1" as="geometry">
            <mxPoint as="offset" />
          </mxGeometry>
        </mxCell>
        <mxCell id="-3z4gxKFgQdJEB-5rTY0-53" value="" style="endArrow=none;html=1;rounded=0;exitX=0;exitY=0.5;exitDx=0;exitDy=0;entryX=1;entryY=0.5;entryDx=0;entryDy=0;" edge="1" parent="1" source="-3z4gxKFgQdJEB-5rTY0-30" target="-3z4gxKFgQdJEB-5rTY0-50">
          <mxGeometry width="50" height="50" relative="1" as="geometry">
            <mxPoint x="275" y="390" as="sourcePoint" />
            <mxPoint x="440" y="380" as="targetPoint" />
          </mxGeometry>
        </mxCell>
        <mxCell id="-3z4gxKFgQdJEB-5rTY0-55" value="n" style="edgeLabel;html=1;align=center;verticalAlign=middle;resizable=0;points=[];" vertex="1" connectable="0" parent="-3z4gxKFgQdJEB-5rTY0-53">
          <mxGeometry x="-0.1484" relative="1" as="geometry">
            <mxPoint as="offset" />
          </mxGeometry>
        </mxCell>
        <mxCell id="-3z4gxKFgQdJEB-5rTY0-56" value="选课" style="rhombus;whiteSpace=wrap;html=1;" vertex="1" parent="1">
          <mxGeometry x="362.5" y="220" width="65" height="55" as="geometry" />
        </mxCell>
        <mxCell id="-3z4gxKFgQdJEB-5rTY0-57" value="" style="endArrow=none;html=1;rounded=0;exitX=0.5;exitY=0;exitDx=0;exitDy=0;entryX=0.5;entryY=1;entryDx=0;entryDy=0;" edge="1" parent="1" source="-3z4gxKFgQdJEB-5rTY0-50" target="-3z4gxKFgQdJEB-5rTY0-56">
          <mxGeometry width="50" height="50" relative="1" as="geometry">
            <mxPoint x="380" y="280" as="sourcePoint" />
            <mxPoint x="430" y="230" as="targetPoint" />
          </mxGeometry>
        </mxCell>
        <mxCell id="-3z4gxKFgQdJEB-5rTY0-61" value="n" style="edgeLabel;html=1;align=center;verticalAlign=middle;resizable=0;points=[];" vertex="1" connectable="0" parent="-3z4gxKFgQdJEB-5rTY0-57">
          <mxGeometry x="-0.0061" relative="1" as="geometry">
            <mxPoint as="offset" />
          </mxGeometry>
        </mxCell>
      </root>
    </mxGraphModel>
  </diagram>
</mxfile>
